<?xml version="1.0" encoding="utf-8"?>
<!-- Generator: Adobe Illustrator 22.0.1, SVG Export Plug-In . SVG Version: 6.00 Build 0)  -->
<svg version="1.1" id="Layer_1" xmlns="http://www.w3.org/2000/svg" xmlns:xlink="http://www.w3.org/1999/xlink" x="0px" y="0px"
	 viewBox="0 0 800 177" style="enable-background:new 0 0 800 177;" xml:space="preserve">
<style type="text/css">
	.st0{fill:#2D3F51;}
	.st1{font-family:'Roboto-Bold';}
	.st2{font-size:179px;}
	.st3{fill:#68C3A3;}
</style>
<g>
	<path class="st0" d="M87.2,99.2l-13.6,14.7v36.4H47.4V23h26.2v57.7l11.5-15.8L117.5,23h32.3l-45.2,56.5l46.5,70.7h-31.2L87.2,99.2z
		"/>
	<path class="st0" d="M237.5,95.1h-50.3v34.1h59.1v21.1H161V23h85.1v21.2h-58.9v30.3h50.3V95.1z"/>
	<path class="st0" d="M308.7,118.7L337.5,23h29.2l-44.3,127.3h-27.4L250.9,23H280L308.7,118.7z"/>
	<path class="st0" d="M406.6,150.3h-26.2V23h26.2V150.3z"/>
	<path class="st0" d="M534.4,150.3h-26.2l-51-83.7v83.7h-26.2V23h26.2l51.1,83.9V23h26.1V150.3z"/>
</g>
<text transform="matrix(1 0 0 1 545.9053 150.25)" class="st1 st2"> </text>
<g>
	<path class="st3" d="M702.1,134.2c-4.7,5.7-11.4,10-20,13.2c-8.6,3.1-18.2,4.7-28.7,4.7c-11,0-20.7-2.4-29-7.2
		c-8.3-4.8-14.7-11.8-19.2-20.9c-4.5-9.1-6.8-19.9-6.9-32.3V83c0-12.7,2.1-23.7,6.4-33c4.3-9.3,10.5-16.4,18.5-21.3
		c8.1-4.9,17.5-7.4,28.4-7.4c15.1,0,26.9,3.6,35.4,10.8c8.5,7.2,13.5,17.7,15.1,31.4h-25.5c-1.2-7.3-3.7-12.6-7.7-16
		c-4-3.4-9.5-5.1-16.5-5.1c-8.9,0-15.7,3.4-20.4,10.1c-4.7,6.7-7,16.7-7.1,29.9v8.1c0,13.3,2.5,23.4,7.6,30.2s12.5,10.2,22.3,10.2
		c9.8,0,16.9-2.1,21.1-6.3v-21.9H652V83.4h50.1V134.2z"/>
	<path class="st3" d="M723,137.8c0-4,1.4-7.3,4.1-9.8c2.7-2.5,6.1-3.8,10.2-3.8c4.1,0,7.6,1.3,10.3,3.8c2.7,2.5,4.1,5.8,4.1,9.8
		c0,4-1.3,7.2-4,9.7c-2.7,2.5-6.1,3.7-10.3,3.7c-4.1,0-7.5-1.2-10.2-3.7C724.3,145,723,141.8,723,137.8z"/>
</g>
</svg>
